<?xml version="1.0" standalone="no"?>
<!DOCTYPE svg PUBLIC "-//W3C//DTD SVG 20010904//EN"
 "http://www.w3.org/TR/2001/REC-SVG-20010904/DTD/svg10.dtd">
<svg version="1.0" xmlns="http://www.w3.org/2000/svg"
 width="242.000000pt" height="242.000000pt" viewBox="0 0 242.000000 242.000000"
 preserveAspectRatio="xMidYMid meet">
<metadata>
Created by potrace 1.14, written by Peter Selinger 2001-2017
</metadata>
<g transform="translate(0.000000,242.000000) scale(0.100000,-0.100000)"
fill="#000000" stroke="none">
<path d="M1172 2390 c-43 -10 -79 -45 -88 -84 -3 -17 -15 -39 -25 -49 -25 -24
-24 -40 1 -32 15 5 26 0 41 -19 24 -30 32 -32 53 -10 9 8 16 11 16 5 0 -6 18
-11 40 -11 l41 0 -8 53 c-4 28 -7 76 -7 105 0 57 -1 57 -64 42z m8 -50 c0 -13
-28 -25 -38 -16 -3 4 0 11 8 16 20 13 30 12 30 0z m0 -75 c0 -23 -2 -24 -20
-13 -19 12 -19 14 -3 26 22 16 23 16 23 -13z"/>
<path d="M1305 2390 c-4 -6 -2 -17 5 -25 14 -16 3 -111 -16 -142 -16 -25 -4
-38 38 -41 29 -2 46 14 31 29 -5 5 -7 23 -5 40 4 29 5 29 28 -22 13 -28 24
-69 24 -90 0 -26 5 -39 13 -39 13 0 39 95 53 193 3 26 10 47 15 47 5 0 9 7 9
15 0 11 -11 15 -38 15 -45 0 -56 -8 -41 -26 6 -8 8 -25 5 -41 -7 -25 -8 -24
-31 25 -28 60 -72 91 -90 62z"/>
<path d="M958 2367 c-31 -12 -36 -28 -13 -47 8 -7 15 -21 15 -32 0 -18 -5 -15
-40 16 -43 38 -79 46 -100 20 -11 -13 -10 -16 6 -20 15 -4 24 -21 34 -67 8
-34 14 -70 14 -79 1 -10 4 -18 9 -18 46 -1 58 2 64 15 3 9 -1 21 -9 28 -9 7
-18 22 -21 35 -5 21 -2 20 33 -10 21 -18 47 -50 56 -70 18 -38 28 -46 38 -30
3 5 -4 53 -16 108 -12 54 -22 112 -22 128 -1 34 -10 38 -48 23z"/>
<path d="M1551 2332 c-5 -10 -8 -28 -5 -39 9 -34 -21 -108 -45 -111 -25 -4
-29 -32 -5 -32 14 0 15 -7 10 -40 -8 -48 12 -56 32 -11 10 23 21 30 55 34 83
11 124 100 76 161 -12 15 -31 31 -43 35 -57 22 -65 22 -75 3z m85 -76 c7 -29
-20 -86 -41 -86 -17 0 -19 19 -6 52 5 13 12 31 15 41 8 25 25 21 32 -7z"/>
<path d="M1800 2285 c-14 -7 -34 -16 -44 -20 -14 -4 -16 -9 -8 -17 14 -14 -29
-104 -65 -135 l-26 -21 38 -16 c49 -21 55 -20 53 7 -2 29 51 137 66 134 6 -1
11 8 10 21 0 12 3 22 8 22 4 0 8 9 8 20 0 23 -6 24 -40 5z"/>
<path d="M634 2246 c-60 -28 -71 -41 -47 -55 22 -11 73 -110 73 -140 0 -13 3
-21 8 -19 69 34 72 37 47 58 -25 21 -17 30 13 14 54 -28 102 -13 102 32 0 30
-20 41 -35 20 -23 -30 -43 -10 -38 39 5 40 3 44 -25 59 -39 20 -37 20 -98 -8z
m70 -49 c8 -13 7 -20 -4 -27 -22 -14 -26 -13 -38 14 -17 37 20 48 42 13z"/>
<path d="M1873 2189 c7 -26 -38 -96 -79 -126 l-27 -20 24 -21 c30 -29 59 -29
59 1 0 12 8 31 16 42 14 18 15 15 8 -45 -4 -36 -13 -77 -20 -92 -8 -15 -10
-29 -5 -32 11 -7 56 39 111 113 25 33 53 63 63 66 25 9 21 20 -15 43 -37 23
-48 21 -48 -12 0 -20 -16 -46 -29 -46 -4 0 -4 25 -3 56 3 42 0 60 -14 75 -24
26 -48 25 -41 -2z"/>
<path d="M449 2121 c-54 -43 -68 -74 -29 -64 26 7 35 -15 15 -37 -20 -22 -4
-36 24 -20 16 8 23 6 35 -12 9 -12 16 -30 16 -40 0 -33 37 -17 104 44 17 15
17 21 5 62 -11 37 -17 45 -31 40 -23 -7 -45 5 -28 16 16 10 5 27 -28 44 -26
12 -30 10 -83 -33z m76 -11 c4 -6 1 -17 -5 -26 -10 -11 -16 -12 -26 -3 -11 9
-11 15 -3 25 14 17 25 18 34 4z m55 -80 c0 -36 -24 -41 -41 -9 -9 17 -8 23 2
30 26 16 39 9 39 -21z"/>
<path d="M1125 2074 c-70 -11 -186 -45 -250 -74 -93 -42 -176 -103 -261 -193
-250 -263 -304 -646 -137 -968 29 -57 33 -70 22 -86 -16 -26 -5 -68 26 -99 14
-14 25 -28 25 -31 0 -3 -21 -3 -46 0 -40 4 -47 2 -51 -14 -7 -24 -96 -89 -123
-89 -27 0 -25 -22 3 -48 26 -25 47 -29 47 -9 0 20 101 99 118 92 8 -3 16 3 19
15 3 11 9 17 14 14 5 -3 12 2 15 11 6 14 8 14 25 -1 14 -12 28 -15 59 -10 35
5 45 2 85 -29 271 -206 647 -228 937 -54 43 26 95 62 115 79 25 23 39 28 46
21 21 -21 52 -11 73 22 53 82 55 86 43 104 -8 15 -4 30 25 77 67 112 105 236
113 378 24 403 -241 767 -632 868 -78 20 -248 33 -310 24z m190 -15 c284 -35
515 -193 644 -439 102 -195 124 -410 64 -620 -28 -99 -116 -270 -131 -256 -2
3 3 17 13 32 14 22 15 28 4 35 -8 5 -10 9 -5 9 5 0 3 7 -5 16 -11 13 -11 15 2
14 40 -6 51 2 75 55 13 31 24 60 24 65 0 18 -20 10 -21 -7 0 -13 -2 -14 -6 -4
-3 8 5 22 17 31 16 12 27 36 36 81 7 35 11 66 8 68 -3 3 -7 -5 -10 -17 -5 -18
-8 -19 -20 -7 -15 15 -18 26 -6 23 4 0 15 2 25 6 14 7 17 21 17 83 0 45 -4 72
-10 68 -5 -3 -8 -11 -6 -18 1 -7 1 -9 -1 -4 -3 4 -12 7 -21 8 -14 0 -14 2 -2
6 21 9 42 32 38 43 -2 6 -13 4 -28 -3 -23 -11 -25 -19 -28 -86 -2 -47 1 -71 7
-67 6 4 7 14 4 24 -5 14 -3 14 14 -3 19 -19 19 -20 3 -27 -10 -4 -21 -11 -25
-17 -15 -26 -20 -5 -21 92 -2 203 -70 362 -219 512 -77 78 -104 98 -185 138
-119 58 -207 79 -335 79 -300 2 -568 -178 -684 -457 -39 -94 -65 -239 -58
-330 3 -38 3 -64 0 -57 -9 22 -25 13 -18 -10 6 -19 5 -21 -6 -10 -28 26 -42
14 -35 -30 4 -22 11 -48 17 -57 8 -12 8 -11 3 8 -4 16 -3 21 5 17 6 -4 11 -18
11 -32 0 -14 -4 -22 -10 -19 -5 3 -3 -12 5 -35 17 -50 32 -76 39 -72 14 6 50
1 40 -6 -6 -4 -15 -18 -19 -30 -6 -22 -5 -23 14 -12 12 6 19 15 16 21 -4 5 -1
9 4 9 6 0 4 14 -6 35 -9 19 -20 32 -25 29 -4 -3 -5 2 -2 10 10 25 22 19 33
-17 6 -19 32 -64 56 -102 48 -72 54 -85 31 -66 -8 7 -16 8 -18 4 -3 -4 -3 -2
-1 6 4 18 -16 43 -30 34 -6 -3 -7 -1 -3 5 4 7 0 22 -9 34 -16 22 -17 22 -11 2
6 -18 3 -21 -19 -16 -29 5 -31 -4 -9 -36 8 -12 13 -26 9 -31 -3 -5 -1 -12 5
-16 6 -4 8 -11 5 -16 -4 -5 0 -9 8 -9 21 0 30 -29 12 -36 -8 -4 -15 -10 -15
-15 0 -5 8 -4 19 2 22 15 51 5 51 -16 0 -13 -6 -17 -26 -14 -4 0 -10 -4 -14
-11 -4 -7 -17 -1 -38 19 -32 29 -41 51 -22 51 6 0 10 8 10 17 0 13 -3 14 -12
5 -18 -18 -28 -15 -28 9 0 12 8 23 19 26 18 5 18 8 -10 53 -39 64 -74 151 -94
236 -25 101 -22 286 4 389 86 330 351 569 686 619 115 17 111 17 210 5z m29
-228 c-2 -3 -12 3 -22 13 -16 17 -16 18 5 5 12 -7 20 -15 17 -18z m-364 -122
c0 -11 -4 -18 -10 -14 -5 3 -7 12 -3 20 7 21 13 19 13 -6z m504 6 c3 -8 1 -15
-4 -15 -6 0 -10 7 -10 15 0 8 2 15 4 15 2 0 6 -7 10 -15z m-89 -34 c106 -40
188 -123 177 -178 -2 -7 1 -13 6 -13 5 0 12 -18 16 -40 5 -35 3 -43 -22 -67
-16 -16 -35 -39 -41 -53 -11 -21 -8 -20 17 8 16 17 33 32 37 32 10 0 -4 -69
-21 -102 -8 -15 -14 -41 -14 -58 0 -35 -17 -41 -24 -7 -12 58 -12 121 -1 155
23 67 15 203 -9 163 -4 -5 -2 -12 3 -15 6 -4 6 -18 1 -35 -4 -16 -6 -32 -3
-34 2 -3 -5 -8 -17 -12 -16 -5 -20 -13 -17 -27 4 -14 2 -18 -8 -14 -8 3 -17 1
-20 -3 -3 -5 2 -12 11 -15 10 -4 14 -13 10 -22 -3 -8 1 -29 10 -45 8 -17 13
-38 11 -47 -3 -13 -6 -11 -15 10 -14 33 -33 44 -97 52 -43 6 -53 4 -72 -14
-13 -11 -23 -30 -23 -42 0 -20 -1 -20 -26 -3 -14 9 -36 14 -47 12 -17 -4 -27
2 -42 26 -14 21 -30 33 -49 35 -18 2 -26 0 -21 -7 4 -8 -5 -10 -32 -5 -30 4
-44 1 -66 -16 -15 -12 -27 -30 -27 -41 0 -10 -4 -19 -10 -19 -16 0 -12 14 15
54 24 35 22 48 -4 24 -10 -11 -12 -8 -10 12 2 14 -4 36 -13 50 -8 14 -20 34
-26 45 l-11 20 -1 -20 c-1 -18 -1 -19 -11 -2 -11 19 -3 41 12 32 12 -8 11 27
-2 62 -7 19 -7 29 0 31 6 2 9 8 5 13 -3 5 -3 9 0 9 2 0 15 -18 27 -40 12 -21
26 -37 31 -34 4 3 8 -4 8 -15 0 -21 11 -27 23 -15 3 4 -1 13 -9 22 -11 10 -12
18 -5 25 11 11 15 67 5 67 -3 0 -15 -10 -25 -22 -19 -22 -20 -22 -10 -2 6 12
8 24 5 27 -9 8 47 78 57 71 5 -3 6 1 3 9 -6 16 25 28 57 22 10 -2 19 0 19 5 0
12 249 5 285 -9z m-441 -3 c-3 -4 -9 -8 -15 -8 -5 0 -9 4 -9 8 0 5 7 9 15 9 8
0 12 -4 9 -9z m586 4 c0 -5 -6 -16 -13 -27 -11 -14 -16 -15 -22 -5 -5 9 -4 11
3 6 7 -4 12 -3 12 3 0 5 -3 11 -7 14 -5 2 -2 2 5 1 6 -2 12 1 12 6 0 6 2 10 5
10 3 0 5 -4 5 -8z m-627 -35 c3 -8 -1 -14 -8 -14 -7 0 -11 6 -8 14 3 7 6 13 8
13 2 0 5 -6 8 -13z m47 8 c0 -7 -30 -13 -34 -7 -3 4 4 9 15 9 10 1 19 0 19 -2z
m581 -18 c-10 -9 -11 -8 -5 6 3 10 9 15 12 12 3 -3 0 -11 -7 -18z m-681 -32
c0 -9 -6 -12 -16 -8 -13 5 -13 7 -2 14 17 11 18 11 18 -6z m105 5 c3 -5 1 -10
-5 -10 -6 0 -8 -4 -5 -10 3 -5 1 -10 -4 -10 -6 0 -11 9 -11 20 0 21 15 27 25
10z m-169 -50 c0 -11 -6 -20 -13 -20 -11 0 -11 5 -3 20 6 11 12 20 13 20 2 0
3 -9 3 -20z m28 -32 c-4 -14 -1 -16 13 -12 14 4 15 4 4 -4 -7 -5 -11 -14 -8
-19 3 -5 -3 -22 -14 -39 -13 -21 -19 -24 -19 -11 0 9 5 17 10 17 6 0 10 5 10
10 0 6 -3 9 -7 9 -22 -4 -25 3 -7 16 19 15 19 15 -1 8 -18 -6 -19 -5 -5 13 14
19 14 19 -8 0 -13 -12 -22 -14 -22 -7 0 7 -4 10 -9 6 -5 -3 -12 -1 -16 5 -4 6
5 10 22 10 15 0 35 5 43 10 11 7 11 10 2 10 -7 0 -10 5 -6 11 10 16 25 -12 18
-33z m814 18 c-7 -8 -15 -12 -17 -11 -5 6 10 25 20 25 5 0 4 -6 -3 -14z m37 4
c3 -5 1 -10 -4 -10 -6 0 -11 5 -11 10 0 6 2 10 4 10 3 0 8 -4 11 -10z m25 -29
c0 -5 -9 -7 -20 -4 -11 3 -20 7 -20 9 0 2 9 4 20 4 11 0 20 -4 20 -9z m-68
-21 c12 -11 20 -22 17 -24 -2 -2 -15 7 -29 20 -13 13 -21 24 -17 24 4 0 17 -9
29 -20z m23 10 c3 -6 -1 -7 -9 -4 -18 7 -21 14 -7 14 6 0 13 -4 16 -10z m-902
-28 c-13 -2 -29 -12 -37 -24 -14 -20 -14 -20 -26 2 -7 12 -8 20 -3 17 4 -3 22
1 38 8 17 7 35 9 40 6 6 -3 0 -7 -12 -9z m980 -5 c4 3 7 1 7 -5 0 -15 -2 -15
-34 1 -14 8 -23 17 -19 21 3 3 14 -1 23 -9 9 -8 20 -12 23 -8z m-846 -2 c0 -8
-4 -12 -9 -9 -5 3 -6 10 -3 15 9 13 12 11 12 -6z m763 -27 c0 -6 -6 -5 -15 2
-8 7 -15 14 -15 16 0 2 7 1 15 -2 8 -4 15 -11 15 -16z m25 13 c3 -5 2 -12 -3
-15 -5 -3 -9 1 -9 9 0 17 3 19 12 6z m-865 -75 c0 -2 -8 -10 -17 -17 -16 -13
-17 -12 -4 4 13 16 21 21 21 13z m696 -42 c-19 -18 -21 -11 -4 19 7 14 13 17
15 10 3 -7 -3 -20 -11 -29z m-885 -11 c-12 -20 -14 -14 -5 12 4 9 9 14 11 11
3 -2 0 -13 -6 -23z m-34 -17 c0 -15 -21 -16 -34 -1 -4 4 -3 5 4 1 6 -3 14 -2
18 4 8 14 12 13 12 -4z m1288 -14 c-3 -3 -11 0 -18 7 -9 10 -8 11 6 5 10 -3
15 -9 12 -12z m-754 -25 c42 -32 25 -107 -25 -107 -63 0 -89 43 -55 91 22 31
53 37 80 16z m297 -3 c12 -8 20 -19 17 -24 -3 -5 -1 -11 4 -15 17 -10 -10 -53
-40 -64 -56 -20 -102 57 -58 98 27 25 47 26 77 5z m-178 -35 c0 -5 4 -8 9 -5
18 11 43 -6 37 -26 -7 -31 3 -47 43 -66 29 -14 43 -16 71 -7 54 16 68 28 73
60 6 44 33 44 41 0 6 -30 10 -35 27 -30 27 9 25 -20 -6 -61 -40 -53 -52 -61
-93 -67 -46 -8 -69 -31 -74 -72 -2 -24 -10 -32 -35 -40 -18 -6 -35 -14 -40
-18 -4 -5 0 -5 10 -1 13 5 17 1 17 -18 0 -22 4 -24 30 -20 18 3 27 9 23 16 -3
6 0 6 8 -1 7 -7 21 -13 30 -13 10 0 76 -23 146 -51 70 -28 167 -61 215 -73 48
-11 88 -25 88 -29 0 -4 -10 -12 -22 -17 -13 -5 -17 -9 -10 -9 10 -1 10 -4 -2
-16 -8 -8 -18 -15 -23 -15 -9 0 -127 46 -155 61 -10 5 -57 22 -105 39 -99 34
-233 97 -233 110 0 4 -19 6 -42 3 -38 -6 -41 -4 -36 15 4 12 0 23 -7 26 -8 3
-11 -2 -8 -15 3 -12 0 -20 -8 -20 -45 -5 -75 -4 -84 2 -5 4 -19 9 -30 11 -19
5 -19 5 -1 13 11 5 36 4 57 -2 60 -16 57 0 -3 17 -31 10 -53 22 -54 30 -1 10
1 10 3 2 3 -7 9 -10 14 -6 5 3 7 11 3 17 -3 7 1 4 9 -5 19 -24 36 -23 30 2 -6
21 6 29 53 35 16 1 28 8 27 14 -2 6 6 11 16 11 27 0 34 15 20 42 -16 30 -20
70 -8 84 6 7 6 20 0 35 l-10 24 0 -27 c-1 -21 -5 -25 -21 -21 -20 5 -27 43
-14 77 7 18 24 22 24 5z m-238 -49 c17 -25 33 -36 63 -42 22 -5 49 -12 60 -17
11 -5 25 -11 31 -13 6 -2 1 -13 -12 -27 -20 -21 -22 -22 -21 -5 2 16 -4 18
-30 16 -18 -2 -53 7 -81 20 -49 22 -50 24 -50 66 0 50 8 50 40 2z m928 20 c0
-5 -5 -10 -11 -10 -5 0 -7 5 -4 10 3 6 8 10 11 10 2 0 4 -4 4 -10z m-127 -46
c-15 -13 -35 -23 -44 -24 -9 0 -19 -9 -22 -19 -3 -13 -42 -37 -113 -71 -142
-69 -208 -92 -223 -77 -8 8 -11 6 -12 -8 0 -11 -3 -15 -5 -8 -9 21 15 51 50
63 79 26 213 90 238 114 15 14 38 26 52 26 14 0 28 5 31 11 10 15 47 27 63 21
10 -3 5 -12 -15 -28z m-1139 20 c18 -7 22 -34 5 -34 -5 0 -7 -5 -3 -11 5 -8 8
-8 14 0 4 8 29 2 81 -19 120 -51 132 -57 169 -90 l35 -32 -45 7 c-50 8 -174
59 -205 84 -18 15 -19 15 -6 -1 12 -16 10 -17 -33 -2 -43 15 -46 15 -67 -5
-13 -12 -33 -21 -47 -21 -19 0 -23 5 -20 23 2 17 11 23 35 25 21 2 30 7 27 16
-3 8 2 20 10 29 9 9 16 20 16 26 0 12 11 14 34 5z m497 -27 c-6 -8 -9 -16 -6
-19 3 -2 -2 -5 -10 -5 -13 0 -13 3 2 19 19 21 31 25 14 5z m-571 -12 c0 -2 -9
-3 -19 -2 -11 0 -18 5 -15 9 4 6 34 0 34 -7z m1264 -12 c34 -16 53 -40 41 -52
-3 -3 -14 0 -24 6 -10 6 -35 15 -55 18 -38 8 -43 14 -24 33 16 16 21 15 62 -5z
m121 -24 c20 -24 25 -41 23 -68 -3 -32 -6 -36 -28 -33 -13 1 -29 7 -35 13 -7
7 -5 8 7 4 15 -6 13 1 -8 41 -39 73 -11 104 41 43z m-1455 -26 c0 -15 10 -37
22 -50 21 -22 21 -24 5 -40 -11 -11 -17 -13 -17 -5 0 7 -5 12 -11 12 -5 0 -7
-6 -3 -12 5 -8 1 -7 -10 2 -41 33 -45 120 -5 120 14 0 19 -7 19 -27z m514 -52
c8 -13 10 -12 17 4 6 17 8 16 8 -8 1 -29 -6 -29 -40 0 -9 8 -20 13 -25 12 -20
-3 -28 2 -15 10 17 11 43 3 55 -18z m166 -14 c10 -4 8 -6 -7 -6 -16 -1 -23 5
-23 17 0 10 3 13 8 6 4 -6 14 -14 22 -17z m436 -45 c-10 -11 -16 -12 -16 -4 0
7 5 12 10 12 6 0 10 5 10 11 0 5 -6 7 -12 3 -8 -5 -7 0 2 11 14 17 15 17 18 0
2 -9 -3 -25 -12 -33z m-913 23 c-3 -9 -8 -14 -10 -11 -3 3 -2 9 2 15 9 16 15
13 8 -4z m103 3 c5 -7 3 -8 -6 -3 -8 5 -11 3 -8 -6 3 -8 12 -14 21 -14 9 0 17
-3 17 -7 0 -5 0 -12 0 -18 0 -5 -4 -10 -10 -10 -5 0 -7 7 -4 15 5 11 2 13 -10
9 -12 -5 -13 -10 -5 -25 11 -21 5 -39 -14 -39 -8 0 -7 3 2 9 12 7 11 12 -1 30
-8 12 -13 33 -10 46 5 27 16 32 28 13z m-319 -34 c-1 -2 -13 -1 -26 3 -16 4
-19 8 -10 14 12 7 45 -9 36 -17z m248 8 c-3 -3 -11 0 -18 7 -9 10 -8 11 6 5
10 -3 15 -9 12 -12z m309 -7 c3 -8 1 -15 -4 -15 -6 0 -10 7 -10 15 0 8 2 15 4
15 2 0 6 -7 10 -15z m549 -25 c-7 -8 -22 24 -16 34 4 5 10 1 13 -10 4 -10 6
-21 3 -24z m94 34 c-3 -3 -12 -4 -19 -1 -8 3 -5 6 6 6 11 1 17 -2 13 -5z m225
-19 c3 -13 1 -22 -3 -19 -5 3 -14 -7 -19 -21 -13 -35 -12 -44 3 -23 12 15 14
15 25 -2 10 -17 8 -18 -16 -16 -22 2 -32 -6 -55 -42 -21 -33 -25 -47 -17 -52
19 -12 2 -30 -25 -28 -14 1 -25 3 -25 4 0 1 20 31 44 67 24 36 51 86 61 111
10 25 19 46 20 46 2 0 5 -11 7 -25z m-1024 5 c-14 -4 -32 -11 -40 -16 -10 -6
-10 -4 1 9 7 9 25 17 40 16 l26 -1 -27 -8z m639 4 c-3 -3 -12 -4 -19 -1 -8 3
-5 6 6 6 11 1 17 -2 13 -5z m34 -11 c13 -16 12 -17 -3 -4 -17 13 -22 21 -14
21 2 0 10 -8 17 -17z m73 2 c-4 -8 -11 -15 -16 -15 -6 0 -5 6 2 15 7 8 14 15
16 15 2 0 1 -7 -2 -15z m-143 -8 c-1 -12 -15 -9 -19 4 -3 6 1 10 8 8 6 -3 11
-8 11 -12z m-557 -9 c-3 -4 0 -8 5 -8 17 0 13 -46 -5 -60 -13 -12 -14 -10 -3
13 10 23 9 30 -4 45 -14 15 -15 19 -2 19 8 0 12 -4 9 -9z m416 -33 c-26 -27
-40 -32 -40 -12 0 13 51 49 59 41 2 -2 -6 -15 -19 -29z m-296 4 c-6 -11 -24
-2 -24 11 0 5 7 7 15 4 8 -4 12 -10 9 -15z m429 -39 c11 -13 10 -13 -5 -1 -10
7 -17 25 -17 40 l2 26 4 -25 c3 -14 10 -32 16 -40z m-713 40 c0 -5 -2 -10 -4
-10 -3 0 -8 5 -11 10 -3 6 -1 10 4 10 6 0 11 -4 11 -10z m243 -85 c-23 -15
-131 -56 -208 -79 -33 -10 -79 -27 -103 -37 -58 -26 -93 -24 -128 6 -16 14
-27 25 -24 26 3 0 30 2 60 4 31 2 105 21 169 43 62 22 119 38 126 36 7 -3 20
2 29 11 9 9 19 14 23 12 5 -3 17 -1 28 3 29 11 51 -9 28 -25z m-46 -85 c10
-15 10 -21 0 -26 -6 -4 -9 -3 -4 1 4 5 0 17 -10 27 -9 10 -12 18 -7 18 5 0 15
-9 21 -20z m40 -2 c-3 -8 -6 -5 -6 6 -1 11 2 17 5 13 3 -3 4 -12 1 -19z m463
18 c0 -2 -7 -9 -15 -16 -13 -11 -14 -10 -9 4 5 14 24 23 24 12z m-359 -53
c-12 -20 -14 -14 -5 12 4 9 9 14 11 11 3 -2 0 -13 -6 -23z m784 17 c6 -10 -16
-65 -40 -94 -12 -16 -18 -17 -27 -8 -9 9 -9 12 0 12 10 0 10 5 2 20 -9 17 -8
20 12 20 21 1 21 2 5 11 -18 10 -18 12 -1 30 19 21 39 25 49 9z m-895 -15 c0
-2 -10 -9 -22 -15 -22 -11 -22 -10 -4 4 21 17 26 19 26 11z m718 -51 c5 3 12
-4 15 -15 4 -15 11 -20 21 -16 33 13 14 -9 -47 -55 -79 -59 -202 -120 -292
-144 -53 -14 -104 -19 -210 -19 -161 0 -235 15 -354 73 -81 39 -191 116 -191
133 0 5 5 7 10 4 6 -3 10 1 10 9 0 8 4 17 8 20 4 2 7 -8 6 -22 -1 -35 59 -86
90 -76 44 14 49 26 18 46 -24 15 -35 16 -56 8 -36 -13 -36 -14 -26 20 6 21 5
30 -3 31 -9 0 -8 2 1 6 6 2 30 -9 51 -26 49 -39 137 -83 226 -113 60 -20 90
-23 210 -23 107 0 154 4 200 18 79 25 190 80 244 123 30 23 47 31 52 23 4 -6
11 -9 17 -5z m-388 -24 c0 -5 -5 -10 -11 -10 -5 0 -7 5 -4 10 3 6 8 10 11 10
2 0 4 -4 4 -10z m-193 -57 c0 -9 -4 -10 -14 -2 -7 6 -13 12 -13 14 0 1 6 2 13
2 8 0 14 -6 14 -14z"/>
<path d="M1067 2035 c-32 -7 -61 -16 -65 -20 -4 -4 3 -5 16 -2 18 4 22 2 18
-10 -3 -8 -6 -19 -6 -24 0 -6 -10 1 -23 14 l-22 25 -63 -25 c-34 -14 -62 -29
-62 -34 0 -14 18 -11 23 4 2 6 4 0 4 -16 0 -24 -2 -26 -16 -15 -9 7 -18 16
-21 20 -11 14 -135 -76 -205 -147 -67 -68 -144 -175 -126 -175 5 0 12 8 16 18
6 15 8 14 16 -5 12 -32 23 -29 51 15 14 20 49 63 78 95 28 31 48 57 43 57 -5
0 -13 -4 -19 -10 -5 -6 -9 0 -9 15 0 20 4 24 20 19 11 -4 23 -11 26 -16 4 -6
9 -6 13 1 4 6 31 28 59 47 29 20 42 34 31 31 -18 -4 -21 0 -21 21 0 24 1 24
13 8 7 -10 17 -15 23 -11 6 3 11 1 11 -5 0 -6 12 -4 32 6 17 9 47 22 67 30 30
12 32 14 8 11 -22 -3 -25 -2 -16 9 6 7 8 18 4 24 -11 17 4 11 26 -11 13 -13
27 -18 37 -14 9 4 38 9 64 12 26 3 45 10 42 15 -3 5 -12 7 -20 4 -8 -3 -14 -1
-14 4 0 6 5 10 10 10 6 0 10 8 11 18 0 13 2 14 6 2 13 -31 31 -37 128 -43 157
-10 286 -53 397 -132 26 -19 48 -30 48 -24 0 7 -8 18 -17 26 -15 12 -16 14 -2
10 9 -3 22 0 28 6 9 9 10 3 5 -22 -6 -30 -2 -38 48 -89 31 -31 72 -82 93 -112
20 -30 35 -45 32 -34 -4 17 0 22 19 22 l23 0 -19 -25 c-18 -23 -18 -26 -3 -58
9 -19 21 -31 26 -28 6 3 7 1 3 -5 -11 -17 5 -65 17 -53 7 7 6 15 -2 25 -11 13
-9 13 13 3 13 -6 21 -14 18 -17 -27 -20 -30 -37 -17 -92 7 -31 10 -59 7 -62
-3 -3 0 -6 7 -6 9 0 11 8 8 21 -4 17 -3 19 6 10 6 -6 17 -11 25 -11 11 0 13
10 7 48 -4 26 -11 54 -17 62 -7 11 -8 7 -3 -13 5 -25 4 -26 -14 -16 -18 12
-18 13 -1 32 20 20 20 21 -17 106 -12 28 -22 40 -27 33 -4 -7 -2 -12 3 -12 6
0 11 -5 11 -12 0 -9 -3 -9 -11 -1 -6 6 -18 9 -25 6 -11 -4 -11 1 2 24 16 28
16 29 -20 87 -21 31 -40 55 -43 52 -3 -3 -1 -12 6 -20 9 -11 7 -13 -15 -13
-18 0 -22 3 -15 10 6 6 11 20 11 32 0 42 -214 220 -232 193 -7 -12 -12 -4 -10
14 2 9 -127 62 -135 55 -3 -4 5 -11 18 -16 16 -7 18 -10 7 -10 -9 -1 -19 -7
-21 -13 -3 -7 -6 -4 -6 7 -2 37 -18 47 -97 61 -92 17 -224 16 -307 -1z m126
-4 c-6 -3 -12 -12 -14 -19 -3 -8 -8 -6 -16 7 -10 16 -9 19 14 19 14 0 21 -3
16 -7z m91 -6 c-4 -8 -1 -15 5 -15 6 0 11 -5 11 -12 0 -9 -3 -9 -11 -1 -6 6
-18 9 -26 6 -13 -5 -13 -3 -2 16 16 24 31 29 23 6z m72 1 c0 -1 -7 -8 -16 -17
-15 -14 -17 -13 -27 8 -10 21 -9 22 15 17 15 -4 27 -7 28 -8z m80 -31 c-3 -8
0 -15 6 -15 6 0 9 -2 7 -5 -3 -2 -15 -2 -27 2 -21 5 -21 6 -5 19 23 17 26 17
19 -1z m150 -60 c-1 -23 -16 -37 -16 -15 0 6 -8 10 -17 10 -14 0 -12 4 7 14
14 8 26 14 26 15 1 1 1 -10 0 -24z m64 -15 c0 -5 -4 -10 -9 -10 -5 0 -18 -3
-28 -7 -16 -6 -16 -5 -4 10 15 19 41 23 41 7z m-892 -54 c0 -21 -3 -23 -19
-13 -16 10 -16 12 -1 24 9 7 18 13 18 13 1 0 2 -11 2 -24z m1010 -37 c10 -1 7
-4 -8 -8 -31 -10 -31 -10 -23 19 6 19 8 21 11 8 2 -10 11 -18 20 -19z m-1119
-93 c1 -6 -4 -5 -10 1 -6 6 -19 9 -28 6 -12 -5 -11 -1 4 14 18 18 21 18 27 4
4 -9 7 -20 7 -25z m1178 9 c-11 -23 -13 -24 -25 -8 -10 15 -10 19 5 25 29 11
32 9 20 -17z m-1201 -25 c10 0 9 -5 -6 -20 -21 -21 -35 -27 -25 -10 4 6 1 18
-7 27 -11 15 -11 16 5 10 10 -4 25 -7 33 -7z"/>
<path d="M508 1610 c-9 -6 -28 -42 -43 -81 -23 -59 -25 -73 -14 -80 18 -11 21
-11 39 4 22 17 72 137 55 130 -8 -2 -16 -12 -18 -21 -4 -15 -5 -15 -6 1 0 9
-5 17 -11 17 -5 0 -10 5 -10 11 0 5 4 8 10 4 5 -3 21 -3 35 1 20 5 23 9 13 15
-17 11 -29 11 -50 -1z m-14 -129 c8 -12 8 -13 -2 -7 -7 4 -20 2 -29 -6 -14
-11 -15 -11 -10 2 4 8 10 24 14 35 5 15 8 16 11 5 3 -8 10 -21 16 -29z"/>
<path d="M484 1432 c-5 -19 -8 -19 -21 -7 -21 22 -30 19 -37 -12 -9 -42 -17
-262 -8 -233 5 17 10 21 16 12 4 -7 12 -10 17 -7 5 4 9 1 9 -4 0 -6 -5 -11
-11 -11 -14 0 -43 -29 -36 -37 4 -3 18 2 32 11 23 15 25 22 24 84 -1 37 -3 59
-6 50 -2 -10 -9 -18 -14 -18 -6 0 -7 5 -4 10 3 6 -2 10 -12 10 -12 0 -8 5 12
16 28 13 32 21 41 82 11 65 9 98 -2 54z m-26 -92 c12 0 9 -4 -8 -13 -31 -17
-31 -17 -23 13 4 14 8 19 11 12 2 -6 11 -12 20 -12z"/>
<path d="M490 870 c0 -5 5 -10 10 -10 6 0 10 5 10 10 0 6 -4 10 -10 10 -5 0
-10 -4 -10 -10z"/>
<path d="M1925 829 c-4 -6 -5 -12 -2 -15 2 -3 7 2 10 11 7 17 1 20 -8 4z"/>
<path d="M1494 1590 c1 -8 7 -24 14 -35 8 -15 11 -16 12 -4 0 8 -6 24 -14 35
-10 13 -14 14 -12 4z"/>
<path d="M1491 1474 c0 -11 3 -14 6 -6 3 7 2 16 -1 19 -3 4 -6 -2 -5 -13z"/>
<path d="M1226 1295 c4 -8 8 -15 10 -15 2 0 4 7 4 15 0 8 -4 15 -10 15 -5 0
-7 -7 -4 -15z"/>
<path d="M1445 1070 c-3 -5 -2 -10 4 -10 5 0 13 5 16 10 3 6 2 10 -4 10 -5 0
-13 -4 -16 -10z"/>
<path d="M1255 900 c4 -6 11 -8 16 -5 14 9 11 15 -7 15 -8 0 -12 -5 -9 -10z"/>
<path d="M1825 770 c-3 -5 -1 -10 4 -10 6 0 11 5 11 10 0 6 -2 10 -4 10 -3 0
-8 -4 -11 -10z"/>
<path d="M1880 716 c0 -2 7 -7 16 -10 8 -3 12 -2 9 4 -6 10 -25 14 -25 6z"/>
<path d="M1662 614 c-24 -18 -48 -35 -55 -37 -7 -2 -9 -8 -5 -12 4 -4 16 -2
25 6 14 10 16 10 6 0 -6 -7 -9 -20 -6 -28 5 -13 3 -13 -16 -2 -11 8 -21 17
-21 21 0 3 -22 -4 -48 -17 -97 -47 -199 -69 -319 -70 -33 0 -59 -3 -56 -7 2
-5 12 -8 21 -9 11 0 12 -3 5 -6 -7 -2 -13 -12 -13 -21 0 -10 -7 -4 -16 14 -12
26 -23 33 -57 38 -23 3 -52 9 -64 12 -13 4 -23 2 -23 -4 0 -6 7 -12 15 -14 12
-2 11 -6 -6 -16 -19 -12 -21 -12 -16 2 3 8 2 18 -4 21 -5 4 -7 10 -4 15 3 4
-7 11 -21 14 -14 4 -49 18 -76 31 -28 14 -55 22 -59 19 -12 -7 -11 -51 0 -59
12 -7 25 31 15 46 -3 6 6 3 21 -7 26 -17 27 -18 6 -26 -18 -6 -30 -28 -16 -28
2 0 27 -9 55 -20 27 -11 50 -17 50 -15 0 3 -10 10 -22 15 -18 7 -19 9 -5 9 9
1 17 7 17 14 1 6 7 -2 15 -20 11 -27 21 -33 69 -43 31 -6 62 -9 69 -7 6 3 2 6
-10 6 -22 1 -22 2 -5 19 16 17 17 17 26 -3 5 -11 8 -23 8 -27 -4 -15 165 -7
249 11 73 17 252 88 194 78 -15 -3 -21 1 -21 14 0 11 4 19 8 19 4 0 8 -4 8 -9
0 -19 40 -18 72 1 71 43 109 80 98 93 -21 25 -46 22 -88 -11z m71 -16 c-2 -5
-9 -6 -14 -3 -5 4 -9 1 -9 -4 0 -22 -15 -10 -16 13 -2 21 1 22 21 12 13 -6 21
-14 18 -18z m-240 -99 c-6 -6 -9 -19 -6 -28 4 -14 2 -13 -10 2 -8 9 -20 17
-28 18 -8 1 -3 5 11 9 37 12 45 11 33 -1z m-42 -41 c11 -8 11 -9 -2 -5 -9 3
-22 0 -29 -6 -10 -10 -12 -8 -6 6 3 10 6 24 6 30 0 8 3 7 9 -2 5 -7 15 -18 22
-23z m-108 -9 c-6 -22 -23 -26 -23 -5 0 8 -6 16 -12 19 -7 2 -1 4 13 4 21 0
25 -3 22 -18z m-56 4 c-4 -3 -3 -11 2 -17 6 -7 2 -11 -14 -12 -21 -2 -22 0
-12 17 6 10 16 19 21 19 5 0 6 -3 3 -7z"/>
<path d="M750 632 c0 -12 19 -26 26 -19 2 2 -2 10 -11 17 -9 8 -15 8 -15 2z"/>
<path d="M805 530 c3 -5 10 -10 16 -10 5 0 9 5 9 10 0 6 -7 10 -16 10 -8 0
-12 -4 -9 -10z"/>
<path d="M290 2051 c0 -11 -20 -40 -45 -64 -25 -25 -45 -50 -45 -56 0 -6 13
-11 29 -11 37 0 45 -11 26 -36 -8 -10 -15 -22 -15 -26 0 -13 22 -9 40 7 14 13
21 9 68 -32 29 -25 52 -54 52 -64 0 -27 12 -24 48 14 38 39 40 47 9 47 -12 0
-43 19 -71 46 l-49 45 37 38 c39 40 36 56 -7 46 -14 -4 -29 -17 -36 -31 -10
-24 -35 -32 -45 -16 -8 13 46 70 69 74 11 2 21 11 23 21 3 14 -4 17 -42 17
-39 0 -46 -3 -46 -19z"/>
<path d="M2037 1985 c-17 -8 -40 -12 -57 -8 -32 6 -43 -13 -15 -23 11 -5 13
-16 9 -46 -6 -34 -4 -40 15 -45 11 -3 18 -9 15 -15 -9 -14 43 -61 61 -54 9 3
14 10 11 14 -6 10 97 102 113 102 19 0 12 26 -11 47 -50 45 -92 54 -141 28z
m82 -34 c9 -6 10 -11 2 -15 -13 -8 -31 1 -31 15 0 11 11 11 29 0z m-49 -46
c11 -13 10 -18 -6 -30 -27 -21 -31 -19 -26 15 5 33 13 37 32 15z"/>
<path d="M370 775 c0 -23 -47 -50 -63 -36 -16 13 -27 5 -27 -20 0 -19 -23 -31
-44 -23 -22 9 -27 -11 -10 -45 17 -34 31 -40 40 -16 9 23 40 18 58 -11 24 -35
80 -31 110 9 l20 27 -32 65 c-30 62 -52 83 -52 50z m20 -99 c0 -33 -14 -40
-34 -17 -17 18 -16 20 1 30 27 16 33 13 33 -13z"/>
<path d="M2038 740 c-17 -10 -68 -94 -68 -112 0 -6 8 -8 19 -5 22 5 54 -11 46
-24 -10 -15 5 -31 19 -20 19 16 56 1 67 -25 4 -13 13 -24 19 -24 16 0 71 117
63 137 -11 32 -35 53 -60 53 -14 0 -31 7 -39 15 -18 17 -41 19 -66 5z m32 -61
c0 -10 -7 -19 -15 -19 -15 0 -21 31 -9 43 11 10 24 -3 24 -24z m78 -37 c4 -23
-12 -28 -37 -13 -12 8 -13 12 -1 26 17 20 34 14 38 -13z"/>
<path d="M1926 575 c-22 -34 -21 -58 3 -50 36 11 114 -100 83 -119 -23 -14
-122 64 -122 96 0 26 -15 22 -39 -8 -23 -30 -28 -58 -8 -51 6 2 33 -15 59 -39
52 -48 62 -51 113 -30 63 27 61 115 -5 168 -22 17 -40 37 -40 45 0 22 -27 15
-44 -12z"/>
<path d="M520 519 c0 -24 -75 -104 -108 -114 l-24 -7 28 -29 c34 -35 42 -36
54 -4 15 39 25 29 22 -20 -3 -26 1 -52 8 -60 16 -19 54 -19 70 0 13 16 7 30
-13 30 -7 0 -13 10 -15 23 -3 19 1 22 27 22 39 0 61 23 61 64 0 27 -9 42 -45
75 -50 46 -65 51 -65 20z m55 -80 c7 -19 -7 -38 -26 -39 -14 0 -19 33 -8 46
16 20 27 17 34 -7z"/>
<path d="M1733 394 c-33 -26 -46 -61 -18 -51 9 4 23 -6 37 -26 12 -18 30 -41
40 -51 10 -11 18 -28 18 -38 0 -26 20 -22 60 12 19 17 40 30 47 30 6 0 14 4
18 9 6 10 -25 81 -35 81 -4 0 -11 -17 -16 -37 -5 -21 -16 -39 -24 -40 -20 -3
-84 86 -82 114 2 29 -5 29 -45 -3z"/>
<path d="M672 325 c-17 -14 -36 -25 -44 -25 -8 0 -22 -6 -33 -14 -17 -12 -17
-13 9 -20 20 -5 26 -11 22 -23 -11 -27 4 -53 30 -53 14 0 24 -6 24 -14 0 -16
57 -42 68 -32 4 4 7 13 7 19 0 22 60 127 73 127 23 0 12 25 -19 43 -45 25
-101 22 -137 -8z m88 -25 c0 -5 -6 -10 -14 -10 -8 0 -18 5 -21 10 -3 6 3 10
14 10 12 0 21 -4 21 -10z m-30 -52 c-1 -7 -7 -24 -15 -38 -14 -24 -14 -24 -15
-3 0 12 -3 28 -6 37 -4 12 0 16 15 16 12 0 21 -6 21 -12z"/>
<path d="M1646 335 c-3 -8 -17 -15 -30 -15 -54 0 -78 -101 -38 -156 20 -28 74
-48 105 -40 49 12 77 108 35 120 -31 7 -42 -7 -27 -33 12 -18 11 -23 -3 -37
-9 -9 -24 -14 -32 -11 -20 8 -56 66 -56 90 0 26 29 33 45 11 11 -16 14 -16 18
-4 2 8 9 29 14 47 6 17 8 34 5 37 -10 11 -30 6 -36 -9z"/>
<path d="M853 274 c-37 -42 -28 -55 22 -32 14 6 28 9 31 6 9 -9 -33 -121 -50
-134 -9 -6 -16 -14 -16 -17 0 -4 85 -37 95 -37 1 0 1 19 1 42 -1 44 22 128 34
128 4 0 12 -11 18 -25 18 -40 44 -33 40 11 -3 35 -4 36 -78 60 -41 13 -75 24
-75 24 0 0 -10 -12 -22 -26z"/>
<path d="M1396 251 c-4 -6 -25 -11 -47 -11 -72 0 -107 -71 -53 -106 l25 -17
-27 -22 -27 -21 23 -22 c71 -66 174 25 109 94 l-22 23 22 37 c14 23 19 40 13
46 -6 6 -12 6 -16 -1z m-42 -67 c4 -11 1 -14 -11 -12 -9 2 -18 9 -21 16 -6 18
25 15 32 -4z m13 -90 c7 -20 -9 -36 -29 -29 -10 4 -14 14 -11 26 6 23 31 25
40 3z"/>
<path d="M1064 229 c-3 -6 2 -16 12 -24 21 -15 12 -30 -19 -37 -24 -4 -23 -22
3 -26 23 -4 27 -40 9 -74 -15 -28 -3 -36 66 -39 l59 -3 23 44 c27 51 27 50 9
50 -8 0 -16 7 -20 15 -3 9 0 15 9 15 18 0 18 4 5 50 l-10 35 -70 2 c-38 1 -72
-3 -76 -8z m115 -43 c9 -10 9 -16 1 -21 -16 -10 -40 2 -40 20 0 19 24 20 39 1z
m6 -76 c10 -17 -8 -40 -31 -40 -26 0 -27 3 -18 36 4 15 11 20 25 17 11 -3 22
-9 24 -13z"/>
</g>
</svg>
